<?xml version="1.0" encoding="UTF-8" standalone="no"?>
<svg width="768px" height="257px" viewBox="0 0 768 257" version="1.1" xmlns="http://www.w3.org/2000/svg" xmlns:xlink="http://www.w3.org/1999/xlink" xmlns:sketch="http://www.bohemiancoding.com/sketch/ns">
    <!-- Generator: Sketch 3.3.3 (12072) - http://www.bohemiancoding.com/sketch -->
    <title>Lo-Poly BG</title>
    <desc>Created with Sketch.</desc>
    <defs></defs>
    <g id="Page-1" stroke="none" stroke-width="1" fill="none" fill-rule="evenodd" sketch:type="MSPage">
        <g id="Tablet-Portrait" sketch:type="MSArtboardGroup" transform="translate(0.000000, -237.000000)" stroke="#009774" stroke-width="0.5">
            <g id="Header" sketch:type="MSLayerGroup">
                <g id="Lo-Poly-BG" transform="translate(-35.000000, 231.434361)" sketch:type="MSShapeGroup">
                    <path d="M789.378697,142.471813 L832.764816,214.504674 L833.858584,137.277195 L789.378697,142.471813 L789.378697,142.471813 Z" id="Stroke-1"></path>
                    <g id="Group-9" transform="translate(791.501416, 0.000000)">
                        <path d="M2.61694051,54.5088952 L46.0030595,56.2414731 L87.7376204,1.52192635 L2.61694051,54.5088952 L2.61694051,54.5088952 Z" id="Stroke-3"></path>
                    </g>
                    <path d="M789.378697,142.471813 L755.836487,193.726204 L832.764816,214.504674 L789.378697,142.471813 L789.378697,142.471813 Z" id="Stroke-10"></path>
                    <path d="M810.888839,91.5642493 L789.378074,142.472748 L833.85796,137.27813 L810.888839,91.5642493 L810.888839,91.5642493 Z" id="Stroke-11"></path>
                    <path d="M794.118357,54.5088952 L810.889462,91.5630028 L837.504476,56.2414731 L794.118357,54.5088952 L794.118357,54.5088952 Z" id="Stroke-12"></path>
                    <path d="M783.180992,244.286941 L824.379575,248.094873 L832.765127,214.502805 L783.180992,244.286941 L783.180992,244.286941 Z" id="Stroke-13"></path>
                    <path d="M755.837422,193.725581 L783.181615,244.288187 L832.762635,214.504051 L755.837422,193.725581 L755.837422,193.725581 Z" id="Stroke-14"></path>
                    <path d="M739.795807,122.385751 L755.837734,193.726827 L789.379943,142.472436 L739.795807,122.385751 L739.795807,122.385751 Z" id="Stroke-15"></path>
                    <path d="M755.837422,193.725581 L709.534589,208.963541 L783.181615,244.288187 L755.837422,193.725581 L755.837422,193.725581 Z" id="Stroke-16"></path>
                    <path d="M739.795807,122.385751 L706.982776,174.331926 L755.837734,193.726827 L739.795807,122.385751 L739.795807,122.385751 Z" id="Stroke-17"></path>
                    <path d="M706.983711,174.332238 L709.535836,208.961983 L755.838669,193.727139 L706.983711,174.332238 L706.983711,174.332238 Z" id="Stroke-18"></path>
                    <path d="M659.588357,162.557875 L706.984958,174.333796 L739.794873,122.384504 L659.588357,162.557875 L659.588357,162.557875 Z" id="Stroke-19"></path>
                    <path d="M671.254901,86.7158357 L659.588045,162.556629 L739.794561,122.386374 L671.254901,86.7158357 L671.254901,86.7158357 Z" id="Stroke-20"></path>
                    <path d="M706.983711,174.332238 L678.91034,189.224306 L709.535836,208.961983 L706.983711,174.332238 L706.983711,174.332238 Z" id="Stroke-21"></path>
                    <path d="M659.588357,162.557875 L678.911586,189.222748 L706.984958,174.333796 L659.588357,162.557875 L659.588357,162.557875 Z" id="Stroke-22"></path>
                    <path d="M614.380538,121.346827 L659.589603,162.557875 L671.253343,86.7170822 L614.380538,121.346827 L614.380538,121.346827 Z" id="Stroke-23"></path>
                    <path d="M659.588357,162.557875 L592.871643,195.112266 L678.911586,189.222748 L659.588357,162.557875 L659.588357,162.557875 Z" id="Stroke-24"></path>
                    <path d="M615.474306,155.285411 L592.869773,195.109773 L659.589603,162.558499 L615.474306,155.285411 L615.474306,155.285411 Z" id="Stroke-25"></path>
                    <path d="M614.380538,121.346827 L615.474306,155.284788 L659.589603,162.557875 L614.380538,121.346827 L614.380538,121.346827 Z" id="Stroke-26"></path>
                    <path d="M616.932663,69.7468555 L614.380538,121.347139 L671.256459,86.7173938 L616.932663,69.7468555 L616.932663,69.7468555 Z" id="Stroke-27"></path>
                    <path d="M566.985184,92.6031728 L614.381785,121.346516 L616.933909,69.7462323 L566.985184,92.6031728 L566.985184,92.6031728 Z" id="Stroke-28"></path>
                    <path d="M614.380538,121.346827 L545.840878,170.522748 L615.474306,155.284788 L614.380538,121.346827 L614.380538,121.346827 Z" id="Stroke-29"></path>
                    <path d="M571.360255,62.8205949 L566.985184,92.6047309 L616.933909,69.7477904 L571.360255,62.8205949 L571.360255,62.8205949 Z" id="Stroke-30"></path>
                    <path d="M566.985184,92.6031728 L545.839008,170.522436 L614.381785,121.346516 L566.985184,92.6031728 L566.985184,92.6031728 Z" id="Stroke-31"></path>
                    <path d="M545.839632,170.523059 L592.871643,195.112578 L615.473059,155.285099 L545.839632,170.523059 L545.839632,170.523059 Z" id="Stroke-32"></path>
                    <path d="M512.662946,86.0234278 L545.840567,170.523994 L566.986742,92.6047309 L512.662946,86.0234278 L512.662946,86.0234278 Z" id="Stroke-33"></path>
                    <path d="M512.662946,86.0234278 L485.683343,152.861671 L545.840567,170.523994 L512.662946,86.0234278 L512.662946,86.0234278 Z" id="Stroke-34"></path>
                    <path d="M512.662946,86.0234278 L566.986742,92.6047309 L571.361813,62.8205949 L512.662946,86.0234278 L512.662946,86.0234278 Z" id="Stroke-35"></path>
                    <path d="M512.662946,43.7734561 L512.662946,86.0221813 L571.361813,62.8193484 L512.662946,43.7734561 L512.662946,43.7734561 Z" id="Stroke-36"></path>
                    <path d="M485.683966,152.861048 L480.215127,207.231586 L545.838074,170.523371 L485.683966,152.861048 L485.683966,152.861048 Z" id="Stroke-37"></path>
                    <path d="M452.87187,140.047762 L485.684901,152.86136 L512.661388,86.0231161 L452.87187,140.047762 L452.87187,140.047762 Z" id="Stroke-38"></path>
                    <path d="M441.569915,91.2180453 L452.872181,140.048074 L512.6617,86.0234278 L441.569915,91.2180453 L441.569915,91.2180453 Z" id="Stroke-39"></path>
                    <path d="M512.662946,43.7734561 L465.995524,52.7760057 L512.662946,86.0221813 L512.662946,43.7734561 L512.662946,43.7734561 Z" id="Stroke-40"></path>
                    <path d="M465.996771,52.7775637 L441.569292,91.2183569 L512.664193,86.0237394 L465.996771,52.7775637 L465.996771,52.7775637 Z" id="Stroke-41"></path>
                    <path d="M443.75745,190.60881 L480.216374,207.23034 L485.685212,152.859802 L443.75745,190.60881 L443.75745,190.60881 Z" id="Stroke-42"></path>
                    <path d="M452.87187,140.047762 L443.757139,190.610368 L485.684901,152.86136 L452.87187,140.047762 L452.87187,140.047762 Z" id="Stroke-43"></path>
                    <g id="Group-48" transform="translate(389.518414, 190.084986)">
                        <path d="M54.2390368,0.523824363 L51.6869122,72.2107932 L90.6979603,17.1453541 L54.2390368,0.523824363 L54.2390368,0.523824363 Z" id="Stroke-44"></path>
                        <path d="M2.83320113,28.9212748 L51.6881586,72.2107932 L54.2402833,0.523824363 L2.83320113,28.9212748 L2.83320113,28.9212748 Z" id="Stroke-46"></path>
                    </g>
                    <path d="M371.206062,70.785779 L441.568669,91.2183569 L465.996147,52.7775637 L371.206062,70.785779 L371.206062,70.785779 Z" id="Stroke-49"></path>
                    <path d="M441.569915,91.2180453 L400.371331,106.801898 L452.872181,140.048074 L441.569915,91.2180453 L441.569915,91.2180453 Z" id="Stroke-50"></path>
                    <path d="M392.351615,219.006261 L390.528669,252.598329 L441.206572,262.295779 L392.351615,219.006261 L392.351615,219.006261 Z" id="Stroke-51"></path>
                    <path d="M375.581133,159.787309 L443.756204,190.609122 L452.870935,140.046516 L375.581133,159.787309 L375.581133,159.787309 Z" id="Stroke-53"></path>
                    <path d="M400.372578,106.801898 L375.58051,159.785751 L452.873428,140.048074 L400.372578,106.801898 L400.372578,106.801898 Z" id="Stroke-54"></path>
                    <path d="M371.206062,70.785779 L400.373201,106.80221 L441.568669,91.2183569 L371.206062,70.785779 L371.206062,70.785779 Z" id="Stroke-55"></path>
                    <path d="M375.581133,159.787309 L392.352238,219.006572 L443.756204,190.609122 L375.581133,159.787309 L375.581133,159.787309 Z" id="Stroke-56"></path>
                    <path d="M375.581133,159.787309 L324.903229,195.457847 L392.352238,219.006572 L375.581133,159.787309 L375.581133,159.787309 Z" id="Stroke-57"></path>
                    <path d="M338.758555,121.346827 L375.582068,159.78762 L400.37102,106.800652 L338.758555,121.346827 L338.758555,121.346827 Z" id="Stroke-58"></path>
                    <path d="M371.206062,70.785779 L338.75762,121.348385 L400.373201,106.80221 L371.206062,70.785779 L371.206062,70.785779 Z" id="Stroke-59"></path>
                    <path d="M336.57102,9.48866856 L337.300198,66.6294618 L371.206997,70.7864023 L336.57102,9.48866856 L336.57102,9.48866856 Z" id="Stroke-60"></path>
                    <path d="M338.758555,121.346827 L350.425411,154.938895 L375.582068,159.78762 L338.758555,121.346827 L338.758555,121.346827 Z" id="Stroke-61"></path>
                    <path d="M350.425099,154.938895 L324.903853,195.458159 L375.581756,159.78762 L350.425099,154.938895 L350.425099,154.938895 Z" id="Stroke-62"></path>
                    <path d="M337.300198,66.6297734 L338.758555,121.346204 L371.206997,70.7867139 L337.300198,66.6297734 L337.300198,66.6297734 Z" id="Stroke-63"></path>
                    <path d="M336.57102,9.48866856 L291.361955,71.1322946 L337.300198,66.6294618 L336.57102,9.48866856 L336.57102,9.48866856 Z" id="Stroke-64"></path>
                    <path d="M337.300198,66.6297734 L291.361955,71.1326062 L338.758555,121.346204 L337.300198,66.6297734 L337.300198,66.6297734 Z" id="Stroke-65"></path>
                    <path d="M291.363201,71.131983 L280.425524,93.9889235 L338.759802,121.345581 L291.363201,71.131983 L291.363201,71.131983 Z" id="Stroke-66"></path>
                    <path d="M338.758555,121.346827 L279.333626,157.017365 L350.425411,154.938895 L338.758555,121.346827 L338.758555,121.346827 Z" id="Stroke-67"></path>
                    <path d="M279.332068,157.016742 L324.905722,195.457535 L350.423853,154.938272 L279.332068,157.016742 L279.332068,157.016742 Z" id="Stroke-68"></path>
                    <path d="M288.446487,6.37189802 L291.363201,71.1316714 L336.572266,9.48804533 L288.446487,6.37189802 L288.446487,6.37189802 Z" id="Stroke-69"></path>
                    <path d="M280.425836,93.9883003 L279.332068,157.015496 L338.756997,121.348074 L280.425836,93.9883003 L280.425836,93.9883003 Z" id="Stroke-70"></path>
                    <path d="M279.332068,157.016742 L277.509122,194.07085 L324.905722,195.457535 L279.332068,157.016742 L279.332068,157.016742 Z" id="Stroke-71"></path>
                    <path d="M222.457705,114.420567 L279.333626,157.015184 L280.424278,93.9879887 L222.457705,114.420567 L222.457705,114.420567 Z" id="Stroke-72"></path>
                    <path d="M288.446487,6.37189802 L230.479915,55.2019263 L291.363201,71.1316714 L288.446487,6.37189802 L288.446487,6.37189802 Z" id="Stroke-73"></path>
                    <path d="M230.478357,55.2016147 L280.427082,93.9883003 L291.361643,71.1313598 L230.478357,55.2016147 L230.478357,55.2016147 Z" id="Stroke-74"></path>
                    <path d="M206.78068,137.623399 L277.507875,194.072408 L279.330822,157.0183 L206.78068,137.623399 L206.78068,137.623399 Z" id="Stroke-75"></path>
                    <path d="M222.457705,114.420567 L206.780368,137.623399 L279.333626,157.015184 L222.457705,114.420567 L222.457705,114.420567 Z" id="Stroke-76"></path>
                    <path d="M230.478357,55.2016147 L222.457394,114.420878 L280.427082,93.9883003 L230.478357,55.2016147 L230.478357,55.2016147 Z" id="Stroke-77"></path>
                    <path d="M184.176771,86.0234278 L222.45864,114.420878 L230.479603,55.2016147 L184.176771,86.0234278 L184.176771,86.0234278 Z" id="Stroke-78"></path>
                    <path d="M167.0417,68.707932 L184.177394,86.0243626 L230.47711,55.2025496 L167.0417,68.707932 L167.0417,68.707932 Z" id="Stroke-79"></path>
                    <path d="M184.176771,86.0234278 L206.781303,137.623711 L222.45864,114.420878 L184.176771,86.0234278 L184.176771,86.0234278 Z" id="Stroke-80"></path>
                    <path d="M184.176771,86.0234278 L170.32238,168.791416 L206.781303,137.623711 L184.176771,86.0234278 L184.176771,86.0234278 Z" id="Stroke-81"></path>
                    <path d="M124.750283,154.592691 L170.323938,168.792975 L184.175212,86.0218697 L124.750283,154.592691 L124.750283,154.592691 Z" id="Stroke-82"></path>
                    <path d="M99.5945609,88.4474788 L124.751218,154.593938 L184.176147,86.0231161 L99.5945609,88.4474788 L99.5945609,88.4474788 Z" id="Stroke-83"></path>
                    <path d="M167.0417,68.707932 L99.5958074,88.4487252 L184.177394,86.0243626 L167.0417,68.707932 L167.0417,68.707932 Z" id="Stroke-84"></path>
                    <path d="M68.7855241,21.7098867 L99.5948725,88.4484136 L167.040765,68.7076204 L68.7855241,21.7098867 L68.7855241,21.7098867 Z" id="Stroke-85"></path>
                    <path d="M3.71008499,51.6323796 L19.1225496,73.1805382 L68.7845892,21.7111331 L3.71008499,51.6323796 L3.71008499,51.6323796 Z" id="Stroke-86"></path>
                    <path d="M61.3136261,195.11102 L109.074816,220.738215 L124.749037,154.591756 L61.3136261,195.11102 L61.3136261,195.11102 Z" id="Stroke-87"></path>
                    <path d="M72.6155807,153.207252 L61.3133144,195.110085 L124.751841,154.593938 L72.6155807,153.207252 L72.6155807,153.207252 Z" id="Stroke-88"></path>
                    <path d="M99.5945609,88.4474788 L72.6149575,153.207252 L124.751218,154.593938 L99.5945609,88.4474788 L99.5945609,88.4474788 Z" id="Stroke-89"></path>
                    <path d="M61.3136261,195.11102 L48.746204,247.403088 L109.074816,220.738215 L61.3136261,195.11102 L61.3136261,195.11102 Z" id="Stroke-90"></path>
                    <path d="M61.3136261,195.11102 L3.70852691,128.637365 L48.746204,247.403088 L61.3136261,195.11102 L61.3136261,195.11102 Z" id="Stroke-91"></path>
                    <path d="M3.71008499,128.638612 L0.793371105,217.972323 L48.7446459,247.404334 L3.71008499,128.638612 L3.71008499,128.638612 Z" id="Stroke-92"></path>
                    <path d="M4.80385269,51.7579603 L61.3151841,195.110085 L72.6143343,153.207252 L4.80385269,51.7579603 L4.80385269,51.7579603 Z" id="Stroke-94"></path>
                    <path d="M4.80385269,51.7579603 L3.71008499,128.639547 L61.3151841,195.110085 L4.80385269,51.7579603 L4.80385269,51.7579603 Z" id="Stroke-95"></path>
                    <path d="M774.968385,91.2065156 L739.690482,122.087535 L810.844589,90.876204 L774.968385,91.2065156 L774.968385,91.2065156 Z" id="Stroke-96"></path>
                    <path d="M810.845836,90.8758924 L774.969632,91.206204 L794.118357,54.5104533 L810.845836,90.8758924 L810.845836,90.8758924 Z" id="Stroke-97"></path>
                    <path d="M72.6155807,153.207252 L19.123796,73.1783569 L99.5951841,88.4474788 L72.6155807,153.207252 L72.6155807,153.207252 Z" id="Stroke-98"></path>
                </g>
            </g>
        </g>
    </g>
</svg>